<mxfile host="Electron" agent="Mozilla/5.0 (Windows NT 10.0; Win64; x64) AppleWebKit/537.36 (KHTML, like Gecko) draw.io/26.1.1 Chrome/132.0.6834.210 Electron/34.3.3 Safari/537.36" version="26.1.1">
  <diagram name="第 1 页" id="mVP6j7SCdk7ZE-yo4KtM">
    <mxGraphModel dx="1157" dy="679" grid="1" gridSize="10" guides="1" tooltips="1" connect="1" arrows="1" fold="1" page="1" pageScale="1" pageWidth="850" pageHeight="950" math="0" shadow="0">
      <root>
        <mxCell id="0" />
        <mxCell id="1" parent="0" />
        <mxCell id="shK-o-8r0Xd0-KGu6ifd-6" value="" style="rounded=1;whiteSpace=wrap;html=1;dashed=1;dashPattern=8 8;" vertex="1" parent="1">
          <mxGeometry x="50" y="140" width="390" height="230" as="geometry" />
        </mxCell>
        <mxCell id="shK-o-8r0Xd0-KGu6ifd-19" style="edgeStyle=orthogonalEdgeStyle;rounded=0;orthogonalLoop=1;jettySize=auto;html=1;exitX=0.5;exitY=1;exitDx=0;exitDy=0;entryX=0.5;entryY=0;entryDx=0;entryDy=0;" edge="1" parent="1" source="shK-o-8r0Xd0-KGu6ifd-3" target="shK-o-8r0Xd0-KGu6ifd-14">
          <mxGeometry relative="1" as="geometry" />
        </mxCell>
        <mxCell id="shK-o-8r0Xd0-KGu6ifd-38" value="输入" style="edgeLabel;html=1;align=center;verticalAlign=middle;resizable=0;points=[];" vertex="1" connectable="0" parent="shK-o-8r0Xd0-KGu6ifd-19">
          <mxGeometry x="-0.4531" y="-1" relative="1" as="geometry">
            <mxPoint y="3" as="offset" />
          </mxGeometry>
        </mxCell>
        <mxCell id="shK-o-8r0Xd0-KGu6ifd-3" value="源代码" style="rounded=0;whiteSpace=wrap;html=1;" vertex="1" parent="1">
          <mxGeometry x="90" y="50" width="100" height="50" as="geometry" />
        </mxCell>
        <mxCell id="shK-o-8r0Xd0-KGu6ifd-21" style="edgeStyle=orthogonalEdgeStyle;rounded=0;orthogonalLoop=1;jettySize=auto;html=1;exitX=1;exitY=0.5;exitDx=0;exitDy=0;entryX=0;entryY=0.5;entryDx=0;entryDy=0;" edge="1" parent="1" source="shK-o-8r0Xd0-KGu6ifd-14" target="shK-o-8r0Xd0-KGu6ifd-15">
          <mxGeometry relative="1" as="geometry" />
        </mxCell>
        <mxCell id="shK-o-8r0Xd0-KGu6ifd-22" value="词法单元流" style="edgeLabel;html=1;align=center;verticalAlign=middle;resizable=0;points=[];" vertex="1" connectable="0" parent="shK-o-8r0Xd0-KGu6ifd-21">
          <mxGeometry x="-0.0828" relative="1" as="geometry">
            <mxPoint as="offset" />
          </mxGeometry>
        </mxCell>
        <mxCell id="shK-o-8r0Xd0-KGu6ifd-14" value="词法分析" style="rounded=1;whiteSpace=wrap;html=1;" vertex="1" parent="1">
          <mxGeometry x="80" y="170" width="120" height="60" as="geometry" />
        </mxCell>
        <mxCell id="shK-o-8r0Xd0-KGu6ifd-23" style="edgeStyle=orthogonalEdgeStyle;rounded=0;orthogonalLoop=1;jettySize=auto;html=1;exitX=0.5;exitY=1;exitDx=0;exitDy=0;" edge="1" parent="1" source="shK-o-8r0Xd0-KGu6ifd-15" target="shK-o-8r0Xd0-KGu6ifd-16">
          <mxGeometry relative="1" as="geometry" />
        </mxCell>
        <mxCell id="shK-o-8r0Xd0-KGu6ifd-24" value="抽象语法树" style="edgeLabel;html=1;align=center;verticalAlign=middle;resizable=0;points=[];" vertex="1" connectable="0" parent="shK-o-8r0Xd0-KGu6ifd-23">
          <mxGeometry x="-0.1779" y="1" relative="1" as="geometry">
            <mxPoint as="offset" />
          </mxGeometry>
        </mxCell>
        <mxCell id="shK-o-8r0Xd0-KGu6ifd-15" value="语法分析" style="rounded=1;whiteSpace=wrap;html=1;" vertex="1" parent="1">
          <mxGeometry x="290" y="170" width="120" height="60" as="geometry" />
        </mxCell>
        <mxCell id="shK-o-8r0Xd0-KGu6ifd-25" style="edgeStyle=orthogonalEdgeStyle;rounded=0;orthogonalLoop=1;jettySize=auto;html=1;exitX=0;exitY=0.5;exitDx=0;exitDy=0;entryX=1;entryY=0.5;entryDx=0;entryDy=0;" edge="1" parent="1" source="shK-o-8r0Xd0-KGu6ifd-16" target="shK-o-8r0Xd0-KGu6ifd-17">
          <mxGeometry relative="1" as="geometry" />
        </mxCell>
        <mxCell id="shK-o-8r0Xd0-KGu6ifd-26" value="中间代码" style="edgeLabel;html=1;align=center;verticalAlign=middle;resizable=0;points=[];" vertex="1" connectable="0" parent="shK-o-8r0Xd0-KGu6ifd-25">
          <mxGeometry x="0.0307" y="2" relative="1" as="geometry">
            <mxPoint as="offset" />
          </mxGeometry>
        </mxCell>
        <mxCell id="shK-o-8r0Xd0-KGu6ifd-16" value="中间代码生成" style="rounded=1;whiteSpace=wrap;html=1;" vertex="1" parent="1">
          <mxGeometry x="290" y="280" width="120" height="60" as="geometry" />
        </mxCell>
        <mxCell id="shK-o-8r0Xd0-KGu6ifd-37" style="edgeStyle=orthogonalEdgeStyle;rounded=0;orthogonalLoop=1;jettySize=auto;html=1;entryX=0.5;entryY=0;entryDx=0;entryDy=0;" edge="1" parent="1" target="shK-o-8r0Xd0-KGu6ifd-33">
          <mxGeometry relative="1" as="geometry">
            <mxPoint x="140" y="340" as="sourcePoint" />
            <Array as="points">
              <mxPoint x="140" y="370" />
              <mxPoint x="140" y="370" />
            </Array>
          </mxGeometry>
        </mxCell>
        <mxCell id="shK-o-8r0Xd0-KGu6ifd-39" value="输出" style="edgeLabel;html=1;align=center;verticalAlign=middle;resizable=0;points=[];" vertex="1" connectable="0" parent="shK-o-8r0Xd0-KGu6ifd-37">
          <mxGeometry x="-0.1744" y="1" relative="1" as="geometry">
            <mxPoint y="-12" as="offset" />
          </mxGeometry>
        </mxCell>
        <mxCell id="shK-o-8r0Xd0-KGu6ifd-17" value="字节码生成" style="rounded=1;whiteSpace=wrap;html=1;" vertex="1" parent="1">
          <mxGeometry x="80" y="280" width="120" height="60" as="geometry" />
        </mxCell>
        <mxCell id="shK-o-8r0Xd0-KGu6ifd-18" value="编译器" style="text;html=1;align=center;verticalAlign=middle;whiteSpace=wrap;rounded=0;fontStyle=1;fontSize=20;" vertex="1" parent="1">
          <mxGeometry x="202.5" y="100" width="85" height="30" as="geometry" />
        </mxCell>
        <mxCell id="shK-o-8r0Xd0-KGu6ifd-33" value="字节码" style="swimlane;fontStyle=0;childLayout=stackLayout;horizontal=1;startSize=26;fillColor=none;horizontalStack=0;resizeParent=1;resizeParentMax=0;resizeLast=0;collapsible=1;marginBottom=0;whiteSpace=wrap;html=1;" vertex="1" parent="1">
          <mxGeometry x="70" y="410" width="140" height="78" as="geometry">
            <mxRectangle x="100" y="540" width="80" height="30" as="alternateBounds" />
          </mxGeometry>
        </mxCell>
        <mxCell id="shK-o-8r0Xd0-KGu6ifd-34" value="指令序列" style="text;strokeColor=none;fillColor=none;align=left;verticalAlign=top;spacingLeft=4;spacingRight=4;overflow=hidden;rotatable=0;points=[[0,0.5],[1,0.5]];portConstraint=eastwest;whiteSpace=wrap;html=1;" vertex="1" parent="shK-o-8r0Xd0-KGu6ifd-33">
          <mxGeometry y="26" width="140" height="26" as="geometry" />
        </mxCell>
        <mxCell id="shK-o-8r0Xd0-KGu6ifd-35" value="常量表、符号表等信息" style="text;strokeColor=none;fillColor=none;align=left;verticalAlign=top;spacingLeft=4;spacingRight=4;overflow=hidden;rotatable=0;points=[[0,0.5],[1,0.5]];portConstraint=eastwest;whiteSpace=wrap;html=1;" vertex="1" parent="shK-o-8r0Xd0-KGu6ifd-33">
          <mxGeometry y="52" width="140" height="26" as="geometry" />
        </mxCell>
        <mxCell id="shK-o-8r0Xd0-KGu6ifd-41" value="" style="rounded=1;whiteSpace=wrap;html=1;dashed=1;dashPattern=8 8;container=0;" vertex="1" parent="1">
          <mxGeometry x="50" y="550" width="390" height="230" as="geometry" />
        </mxCell>
        <mxCell id="shK-o-8r0Xd0-KGu6ifd-58" style="edgeStyle=orthogonalEdgeStyle;rounded=0;orthogonalLoop=1;jettySize=auto;html=1;exitX=1;exitY=0.5;exitDx=0;exitDy=0;entryX=0;entryY=0.5;entryDx=0;entryDy=0;" edge="1" parent="1" source="shK-o-8r0Xd0-KGu6ifd-46" target="shK-o-8r0Xd0-KGu6ifd-57">
          <mxGeometry relative="1" as="geometry" />
        </mxCell>
        <mxCell id="shK-o-8r0Xd0-KGu6ifd-59" value="创建" style="edgeLabel;html=1;align=center;verticalAlign=middle;resizable=0;points=[];" vertex="1" connectable="0" parent="shK-o-8r0Xd0-KGu6ifd-58">
          <mxGeometry x="-0.1741" y="1" relative="1" as="geometry">
            <mxPoint as="offset" />
          </mxGeometry>
        </mxCell>
        <mxCell id="shK-o-8r0Xd0-KGu6ifd-60" style="edgeStyle=orthogonalEdgeStyle;rounded=0;orthogonalLoop=1;jettySize=auto;html=1;entryX=0.5;entryY=0;entryDx=0;entryDy=0;" edge="1" parent="1" source="shK-o-8r0Xd0-KGu6ifd-33" target="shK-o-8r0Xd0-KGu6ifd-46">
          <mxGeometry relative="1" as="geometry" />
        </mxCell>
        <mxCell id="shK-o-8r0Xd0-KGu6ifd-61" value="输入" style="edgeLabel;html=1;align=center;verticalAlign=middle;resizable=0;points=[];" vertex="1" connectable="0" parent="shK-o-8r0Xd0-KGu6ifd-60">
          <mxGeometry x="-0.1627" y="-2" relative="1" as="geometry">
            <mxPoint y="4" as="offset" />
          </mxGeometry>
        </mxCell>
        <mxCell id="shK-o-8r0Xd0-KGu6ifd-46" value="字节码加载" style="rounded=1;whiteSpace=wrap;html=1;" vertex="1" parent="1">
          <mxGeometry x="80" y="580" width="120" height="60" as="geometry" />
        </mxCell>
        <mxCell id="shK-o-8r0Xd0-KGu6ifd-65" style="edgeStyle=orthogonalEdgeStyle;rounded=0;orthogonalLoop=1;jettySize=auto;html=1;exitX=0.5;exitY=1;exitDx=0;exitDy=0;" edge="1" parent="1" source="shK-o-8r0Xd0-KGu6ifd-52" target="shK-o-8r0Xd0-KGu6ifd-64">
          <mxGeometry relative="1" as="geometry" />
        </mxCell>
        <mxCell id="shK-o-8r0Xd0-KGu6ifd-66" value="IO" style="edgeLabel;html=1;align=center;verticalAlign=middle;resizable=0;points=[];" vertex="1" connectable="0" parent="shK-o-8r0Xd0-KGu6ifd-65">
          <mxGeometry x="-0.4506" y="-2" relative="1" as="geometry">
            <mxPoint x="3" as="offset" />
          </mxGeometry>
        </mxCell>
        <mxCell id="shK-o-8r0Xd0-KGu6ifd-52" value="解释执行指令序列" style="rounded=1;whiteSpace=wrap;html=1;" vertex="1" parent="1">
          <mxGeometry x="290" y="690" width="120" height="60" as="geometry" />
        </mxCell>
        <mxCell id="shK-o-8r0Xd0-KGu6ifd-55" value="解释器" style="text;html=1;align=center;verticalAlign=middle;whiteSpace=wrap;rounded=0;fontStyle=1;fontSize=20;" vertex="1" parent="1">
          <mxGeometry x="202.5" y="510" width="85" height="30" as="geometry" />
        </mxCell>
        <mxCell id="shK-o-8r0Xd0-KGu6ifd-62" style="edgeStyle=orthogonalEdgeStyle;rounded=0;orthogonalLoop=1;jettySize=auto;html=1;exitX=0.5;exitY=1;exitDx=0;exitDy=0;entryX=0.5;entryY=0;entryDx=0;entryDy=0;" edge="1" parent="1" source="shK-o-8r0Xd0-KGu6ifd-57" target="shK-o-8r0Xd0-KGu6ifd-52">
          <mxGeometry relative="1" as="geometry" />
        </mxCell>
        <mxCell id="shK-o-8r0Xd0-KGu6ifd-57" value="入口栈帧" style="rounded=0;whiteSpace=wrap;html=1;" vertex="1" parent="1">
          <mxGeometry x="290" y="580" width="120" height="60" as="geometry" />
        </mxCell>
        <mxCell id="shK-o-8r0Xd0-KGu6ifd-64" value="指令运行结果" style="rounded=0;whiteSpace=wrap;html=1;" vertex="1" parent="1">
          <mxGeometry x="300" y="810" width="100" height="50" as="geometry" />
        </mxCell>
      </root>
    </mxGraphModel>
  </diagram>
</mxfile>
